M48
; DRILL file {KiCad 8.0.1} date 2024-08-12T20:52:26+0530
; FORMAT={-:-/ absolute / inch / decimal}
; #@! TF.CreationDate,2024-08-12T20:52:26+05:30
; #@! TF.GenerationSoftware,Kicad,Pcbnew,8.0.1
; #@! TF.FileFunction,Plated,1,2,PTH
FMAT,2
INCH
; #@! TA.AperFunction,Plated,PTH,ViaDrill
T1C0.0138
; #@! TA.AperFunction,Plated,PTH,ComponentDrill
T2C0.0276
; #@! TA.AperFunction,Plated,PTH,ComponentDrill
T3C0.0300
; #@! TA.AperFunction,Plated,PTH,ComponentDrill
T4C0.0315
; #@! TA.AperFunction,Plated,PTH,ComponentDrill
T5C0.0394
%
G90
G05
T1
X4.4594Y-3.6
X4.5Y-3.55
X4.525Y-3.875
X4.5264Y-3.5236
X4.575Y-3.875
X4.6022Y-3.8486
X5.0108Y-3.6358
X5.1Y-3.725
T2
X5.852Y-4.0024
X5.852Y-4.3024
X6.0752Y-4.0071
X6.0752Y-4.3071
T3
X4.95Y-3.275
X4.95Y-3.375
X4.95Y-3.475
X4.95Y-3.575
X4.95Y-3.675
X4.95Y-3.775
X4.95Y-3.875
X4.95Y-3.975
X4.95Y-4.075
X4.95Y-4.175
X4.95Y-4.275
X4.95Y-4.375
X5.0Y-4.475
X5.1Y-4.475
X5.2Y-4.475
X5.25Y-3.275
X5.3Y-4.475
X5.35Y-3.275
X5.4Y-4.475
X5.45Y-3.275
X5.45Y-3.925
X5.45Y-4.025
X5.5Y-4.475
X5.55Y-3.275
X5.55Y-3.375
X5.55Y-3.475
X5.55Y-3.575
X5.55Y-3.675
X5.55Y-3.775
X5.55Y-3.875
X5.55Y-3.975
X5.55Y-4.075
X5.55Y-4.175
X5.55Y-4.275
X5.55Y-4.375
T4
X6.459Y-3.2969
X6.459Y-3.3756
X6.459Y-3.4543
T5
X3.6157Y-2.9311
X3.6157Y-4.7335
X3.7157Y-2.9311
X3.7157Y-4.7335
X3.8157Y-2.9311
X3.8157Y-4.7335
X3.9157Y-2.9311
X3.9157Y-4.7335
X4.0157Y-2.9311
X4.0157Y-4.7335
X4.8831Y-2.9299
X4.8831Y-4.7319
X4.9831Y-2.9299
X4.9831Y-4.7319
X5.0831Y-2.9299
X5.0831Y-4.7319
X5.1831Y-2.9299
X5.1831Y-4.7319
X5.2831Y-2.9299
X5.2831Y-4.7319
X5.312Y-4.9587
X5.312Y-5.1358
X5.5679Y-4.9587
X5.5679Y-5.1358
X5.7343Y-4.9596
X5.7343Y-5.1368
X5.9902Y-4.9596
X5.9902Y-5.1368
X6.1591Y-2.9327
X6.1591Y-4.7327
X6.2591Y-2.9327
X6.2591Y-4.7327
X6.3591Y-2.9327
X6.3591Y-4.7327
X6.4591Y-2.9327
X6.4591Y-4.7327
X6.5591Y-2.9327
X6.5591Y-4.7327
X7.4315Y-2.9299
X7.4315Y-4.7327
X7.5315Y-2.9299
X7.5315Y-4.7327
X7.6315Y-2.9299
X7.6315Y-4.7327
X7.7315Y-2.9299
X7.7315Y-4.7327
X7.8315Y-2.9299
X7.8315Y-4.7327
T2
G00X6.4432Y-3.2102
M15
G01X6.4747Y-3.2102
M16
G05
G00X6.4432Y-3.5409
M15
G01X6.4747Y-3.5409
M16
G05
T5
G00X5.8273Y-3.4181
M15
G01X5.8273Y-3.3394
M16
G05
G00X5.9729Y-3.2606
M15
G01X6.0517Y-3.2606
M16
G05
G00X5.9729Y-3.4969
M15
G01X6.0517Y-3.4969
M16
G05
M30
