%TF.GenerationSoftware,KiCad,Pcbnew,8.0.1*%
%TF.CreationDate,2024-08-12T20:51:52+05:30*%
%TF.ProjectId,4x8x8 LED Matrix Pcb,34783878-3820-44c4-9544-204d61747269,rev?*%
%TF.SameCoordinates,Original*%
%TF.FileFunction,Soldermask,Bot*%
%TF.FilePolarity,Negative*%
%FSLAX46Y46*%
G04 Gerber Fmt 4.6, Leading zero omitted, Abs format (unit mm)*
G04 Created by KiCad (PCBNEW 8.0.1) date 2024-08-12 20:51:52*
%MOMM*%
%LPD*%
G01*
G04 APERTURE LIST*
G04 Aperture macros list*
%AMRoundRect*
0 Rectangle with rounded corners*
0 $1 Rounding radius*
0 $2 $3 $4 $5 $6 $7 $8 $9 X,Y pos of 4 corners*
0 Add a 4 corners polygon primitive as box body*
4,1,4,$2,$3,$4,$5,$6,$7,$8,$9,$2,$3,0*
0 Add four circle primitives for the rounded corners*
1,1,$1+$1,$2,$3*
1,1,$1+$1,$4,$5*
1,1,$1+$1,$6,$7*
1,1,$1+$1,$8,$9*
0 Add four rect primitives between the rounded corners*
20,1,$1+$1,$2,$3,$4,$5,0*
20,1,$1+$1,$4,$5,$6,$7,0*
20,1,$1+$1,$6,$7,$8,$9,0*
20,1,$1+$1,$8,$9,$2,$3,0*%
G04 Aperture macros list end*
%ADD10C,1.524000*%
%ADD11C,2.500000*%
%ADD12R,1.700000X1.700000*%
%ADD13O,1.700000X1.700000*%
%ADD14C,1.400000*%
%ADD15O,1.400000X1.400000*%
%ADD16RoundRect,0.102000X0.654000X-0.654000X0.654000X0.654000X-0.654000X0.654000X-0.654000X-0.654000X0*%
%ADD17C,1.512000*%
%ADD18O,2.664000X1.434000*%
%ADD19RoundRect,0.102000X-0.754000X-0.754000X0.754000X-0.754000X0.754000X0.754000X-0.754000X0.754000X0*%
%ADD20C,1.712000*%
%ADD21R,3.500000X3.500000*%
%ADD22RoundRect,0.750000X1.000000X-0.750000X1.000000X0.750000X-1.000000X0.750000X-1.000000X-0.750000X0*%
%ADD23RoundRect,0.875000X0.875000X-0.875000X0.875000X0.875000X-0.875000X0.875000X-0.875000X-0.875000X0*%
G04 APERTURE END LIST*
D10*
%TO.C,U1*%
X125730000Y-111125000D03*
X125730000Y-108585000D03*
X125730000Y-106045000D03*
X125730000Y-103505000D03*
X125730000Y-100965000D03*
X125730000Y-98425000D03*
X125730000Y-95885000D03*
X125730000Y-93345000D03*
X125730000Y-90805000D03*
X125730000Y-88265000D03*
X125730000Y-85725000D03*
X125730000Y-83185000D03*
X133350000Y-83185000D03*
X135890000Y-83185000D03*
X138430000Y-83185000D03*
X140970000Y-83185000D03*
X140970000Y-85725000D03*
X140970000Y-88265000D03*
X140970000Y-90805000D03*
X140970000Y-93345000D03*
X140970000Y-95885000D03*
X140970000Y-98425000D03*
X140970000Y-100965000D03*
X140970000Y-103505000D03*
X140970000Y-106045000D03*
X140970000Y-108585000D03*
X140970000Y-111125000D03*
X139700000Y-113665000D03*
X137160000Y-113665000D03*
X134620000Y-113665000D03*
X132080000Y-113665000D03*
X129540000Y-113665000D03*
X127000000Y-113665000D03*
X138430000Y-99695000D03*
X138430000Y-102235000D03*
%TD*%
D11*
%TO.C,H1*%
X116840000Y-81280000D03*
%TD*%
D12*
%TO.C,J8*%
X198920000Y-120210000D03*
D13*
X196380000Y-120210000D03*
X193840000Y-120210000D03*
X191300000Y-120210000D03*
X188760000Y-120210000D03*
%TD*%
%TO.C,J6*%
X156440000Y-120210000D03*
X158980000Y-120210000D03*
X161520000Y-120210000D03*
X164060000Y-120210000D03*
D12*
X166600000Y-120210000D03*
%TD*%
D14*
%TO.C,R1*%
X148640000Y-109280000D03*
D15*
X148640000Y-101660000D03*
%TD*%
D11*
%TO.C,H3*%
X172720000Y-81280000D03*
%TD*%
D12*
%TO.C,J9*%
X198920000Y-74420000D03*
D13*
X196380000Y-74420000D03*
X193840000Y-74420000D03*
X191300000Y-74420000D03*
X188760000Y-74420000D03*
%TD*%
D16*
%TO.C,S1*%
X164057500Y-87740000D03*
D17*
X164057500Y-85740000D03*
X164057500Y-83740000D03*
D18*
X164057500Y-89940000D03*
X164057500Y-81540000D03*
%TD*%
D12*
%TO.C,J7*%
X166600000Y-74490000D03*
D13*
X164060000Y-74490000D03*
X161520000Y-74490000D03*
X158980000Y-74490000D03*
X156440000Y-74490000D03*
%TD*%
D11*
%TO.C,H4*%
X116840000Y-106680000D03*
%TD*%
D19*
%TO.C,S2*%
X134925000Y-125950000D03*
D20*
X141425000Y-125950000D03*
X134925000Y-130450000D03*
X141425000Y-130450000D03*
%TD*%
D12*
%TO.C,J4*%
X134190000Y-120190000D03*
D13*
X131650000Y-120190000D03*
X129110000Y-120190000D03*
X126570000Y-120190000D03*
X124030000Y-120190000D03*
%TD*%
D21*
%TO.C,J1*%
X152712500Y-82820000D03*
D22*
X152712500Y-88820000D03*
D23*
X148012500Y-85820000D03*
%TD*%
D14*
%TO.C,R2*%
X154310000Y-109400000D03*
D15*
X154310000Y-101780000D03*
%TD*%
D13*
%TO.C,J2*%
X91840000Y-120230000D03*
X94380000Y-120230000D03*
X96920000Y-120230000D03*
X99460000Y-120230000D03*
D12*
X102000000Y-120230000D03*
%TD*%
%TO.C,J5*%
X134190000Y-74420000D03*
D13*
X131650000Y-74420000D03*
X129110000Y-74420000D03*
X126570000Y-74420000D03*
X124030000Y-74420000D03*
%TD*%
D11*
%TO.C,H2*%
X172720000Y-106680000D03*
%TD*%
D19*
%TO.C,S3*%
X145650000Y-125975000D03*
D20*
X152150000Y-125975000D03*
X145650000Y-130475000D03*
X152150000Y-130475000D03*
%TD*%
D12*
%TO.C,J3*%
X102000000Y-74450000D03*
D13*
X99460000Y-74450000D03*
X96920000Y-74450000D03*
X94380000Y-74450000D03*
X91840000Y-74450000D03*
%TD*%
M02*
