%TF.GenerationSoftware,KiCad,Pcbnew,8.0.1*%
%TF.CreationDate,2024-08-12T20:51:52+05:30*%
%TF.ProjectId,4x8x8 LED Matrix Pcb,34783878-3820-44c4-9544-204d61747269,rev?*%
%TF.SameCoordinates,Original*%
%TF.FileFunction,Profile,NP*%
%FSLAX46Y46*%
G04 Gerber Fmt 4.6, Leading zero omitted, Abs format (unit mm)*
G04 Created by KiCad (PCBNEW 8.0.1) date 2024-08-12 20:51:52*
%MOMM*%
%LPD*%
G01*
G04 APERTURE LIST*
%TA.AperFunction,Profile*%
%ADD10C,0.050000*%
%TD*%
G04 APERTURE END LIST*
D10*
X179070000Y-116840000D02*
G75*
G02*
X178435000Y-116205000I0J635000D01*
G01*
X178435000Y-78105000D02*
G75*
G02*
X179070000Y-77470000I635000J0D01*
G01*
X178435000Y-116205000D02*
X178435000Y-78105000D01*
X201295000Y-71755000D02*
G75*
G02*
X201930000Y-72390000I0J-635000D01*
G01*
X201930000Y-76835000D02*
G75*
G02*
X201295000Y-77470000I-635000J0D01*
G01*
X201295000Y-116840000D02*
G75*
G02*
X201930000Y-117475000I0J-635000D01*
G01*
X201930000Y-122555000D02*
G75*
G02*
X201295000Y-123190000I-635000J0D01*
G01*
X156210000Y-123825000D02*
G75*
G02*
X156845000Y-123190000I635000J0D01*
G01*
X156210000Y-131445000D02*
G75*
G02*
X155575000Y-132080000I-635000J0D01*
G01*
X131445000Y-132080000D02*
G75*
G02*
X130810000Y-131445000I0J635000D01*
G01*
X130175000Y-123190000D02*
G75*
G02*
X130810000Y-123825000I0J-635000D01*
G01*
X89535000Y-123190000D02*
G75*
G02*
X88900000Y-122555000I0J635000D01*
G01*
X88900000Y-117475000D02*
G75*
G02*
X89535000Y-116840000I635000J0D01*
G01*
X112395000Y-116205000D02*
G75*
G02*
X111760000Y-116840000I-635000J0D01*
G01*
X111760000Y-77470000D02*
G75*
G02*
X112395000Y-78105000I0J-635000D01*
G01*
X89535000Y-77470000D02*
G75*
G02*
X88900000Y-76835000I0J635000D01*
G01*
X88900000Y-72390000D02*
G75*
G02*
X89535000Y-71755000I635000J0D01*
G01*
X112395000Y-78105000D02*
X112395000Y-116205000D01*
X201295000Y-71755000D02*
X200025000Y-71755000D01*
X201930000Y-76835000D02*
X201930000Y-72390000D01*
X179070000Y-77470000D02*
X201295000Y-77470000D01*
X201295000Y-116840000D02*
X179070000Y-116840000D01*
X201930000Y-122555000D02*
X201930000Y-117475000D01*
X156845000Y-123190000D02*
X201295000Y-123190000D01*
X156210000Y-131445000D02*
X156210000Y-123825000D01*
X131445000Y-132080000D02*
X155575000Y-132080000D01*
X130810000Y-123825000D02*
X130810000Y-131445000D01*
X89535000Y-123190000D02*
X130175000Y-123190000D01*
X88900000Y-117475000D02*
X88900000Y-122555000D01*
X111760000Y-116840000D02*
X89535000Y-116840000D01*
X89535000Y-77470000D02*
X111760000Y-77470000D01*
X88900000Y-72390000D02*
X88900000Y-76835000D01*
X200025000Y-71755000D02*
X89535000Y-71755000D01*
M02*
