%TF.GenerationSoftware,KiCad,Pcbnew,8.0.1*%
%TF.CreationDate,2024-08-12T20:51:52+05:30*%
%TF.ProjectId,4x8x8 LED Matrix Pcb,34783878-3820-44c4-9544-204d61747269,rev?*%
%TF.SameCoordinates,Original*%
%TF.FileFunction,Legend,Top*%
%TF.FilePolarity,Positive*%
%FSLAX46Y46*%
G04 Gerber Fmt 4.6, Leading zero omitted, Abs format (unit mm)*
G04 Created by KiCad (PCBNEW 8.0.1) date 2024-08-12 20:51:52*
%MOMM*%
%LPD*%
G01*
G04 APERTURE LIST*
%ADD10C,0.200000*%
%ADD11C,0.150000*%
%ADD12C,0.120000*%
%ADD13C,0.127000*%
G04 APERTURE END LIST*
D10*
X161290000Y-94488000D02*
X175514000Y-94488000D01*
X175514000Y-99314000D01*
X161290000Y-99314000D01*
X161290000Y-94488000D01*
X162566054Y-96785281D02*
X162513673Y-96837662D01*
X162513673Y-96837662D02*
X162356530Y-96890042D01*
X162356530Y-96890042D02*
X162251768Y-96890042D01*
X162251768Y-96890042D02*
X162094625Y-96837662D01*
X162094625Y-96837662D02*
X161989863Y-96732900D01*
X161989863Y-96732900D02*
X161937482Y-96628138D01*
X161937482Y-96628138D02*
X161885101Y-96418614D01*
X161885101Y-96418614D02*
X161885101Y-96261471D01*
X161885101Y-96261471D02*
X161937482Y-96051947D01*
X161937482Y-96051947D02*
X161989863Y-95947185D01*
X161989863Y-95947185D02*
X162094625Y-95842423D01*
X162094625Y-95842423D02*
X162251768Y-95790042D01*
X162251768Y-95790042D02*
X162356530Y-95790042D01*
X162356530Y-95790042D02*
X162513673Y-95842423D01*
X162513673Y-95842423D02*
X162566054Y-95894804D01*
X163037482Y-96890042D02*
X163037482Y-95790042D01*
X163037482Y-96313852D02*
X163666054Y-96313852D01*
X163666054Y-96890042D02*
X163666054Y-95790042D01*
X164189863Y-96890042D02*
X164189863Y-95790042D01*
X165342245Y-96890042D02*
X164975578Y-96366233D01*
X164713673Y-96890042D02*
X164713673Y-95790042D01*
X164713673Y-95790042D02*
X165132721Y-95790042D01*
X165132721Y-95790042D02*
X165237483Y-95842423D01*
X165237483Y-95842423D02*
X165289864Y-95894804D01*
X165289864Y-95894804D02*
X165342245Y-95999566D01*
X165342245Y-95999566D02*
X165342245Y-96156709D01*
X165342245Y-96156709D02*
X165289864Y-96261471D01*
X165289864Y-96261471D02*
X165237483Y-96313852D01*
X165237483Y-96313852D02*
X165132721Y-96366233D01*
X165132721Y-96366233D02*
X164713673Y-96366233D01*
X165761292Y-96575757D02*
X166285102Y-96575757D01*
X165656530Y-96890042D02*
X166023197Y-95790042D01*
X166023197Y-95790042D02*
X166389864Y-96890042D01*
X167332721Y-95842423D02*
X167227959Y-95790042D01*
X167227959Y-95790042D02*
X167070816Y-95790042D01*
X167070816Y-95790042D02*
X166913673Y-95842423D01*
X166913673Y-95842423D02*
X166808911Y-95947185D01*
X166808911Y-95947185D02*
X166756530Y-96051947D01*
X166756530Y-96051947D02*
X166704149Y-96261471D01*
X166704149Y-96261471D02*
X166704149Y-96418614D01*
X166704149Y-96418614D02*
X166756530Y-96628138D01*
X166756530Y-96628138D02*
X166808911Y-96732900D01*
X166808911Y-96732900D02*
X166913673Y-96837662D01*
X166913673Y-96837662D02*
X167070816Y-96890042D01*
X167070816Y-96890042D02*
X167175578Y-96890042D01*
X167175578Y-96890042D02*
X167332721Y-96837662D01*
X167332721Y-96837662D02*
X167385102Y-96785281D01*
X167385102Y-96785281D02*
X167385102Y-96418614D01*
X167385102Y-96418614D02*
X167175578Y-96418614D01*
X169323197Y-96890042D02*
X168956530Y-96366233D01*
X168694625Y-96890042D02*
X168694625Y-95790042D01*
X168694625Y-95790042D02*
X169113673Y-95790042D01*
X169113673Y-95790042D02*
X169218435Y-95842423D01*
X169218435Y-95842423D02*
X169270816Y-95894804D01*
X169270816Y-95894804D02*
X169323197Y-95999566D01*
X169323197Y-95999566D02*
X169323197Y-96156709D01*
X169323197Y-96156709D02*
X169270816Y-96261471D01*
X169270816Y-96261471D02*
X169218435Y-96313852D01*
X169218435Y-96313852D02*
X169113673Y-96366233D01*
X169113673Y-96366233D02*
X168694625Y-96366233D01*
X169742244Y-96575757D02*
X170266054Y-96575757D01*
X169637482Y-96890042D02*
X170004149Y-95790042D01*
X170004149Y-95790042D02*
X170370816Y-96890042D01*
X171051768Y-95790042D02*
X171051768Y-96575757D01*
X171051768Y-96575757D02*
X170999387Y-96732900D01*
X170999387Y-96732900D02*
X170894625Y-96837662D01*
X170894625Y-96837662D02*
X170737482Y-96890042D01*
X170737482Y-96890042D02*
X170632720Y-96890042D01*
X171470815Y-95790042D02*
X171732720Y-96890042D01*
X171732720Y-96890042D02*
X171942244Y-96104328D01*
X171942244Y-96104328D02*
X172151768Y-96890042D01*
X172151768Y-96890042D02*
X172413673Y-95790042D01*
X172780339Y-96575757D02*
X173304149Y-96575757D01*
X172675577Y-96890042D02*
X173042244Y-95790042D01*
X173042244Y-95790042D02*
X173408911Y-96890042D01*
X173775577Y-96890042D02*
X173775577Y-95790042D01*
X173775577Y-95790042D02*
X174404149Y-96890042D01*
X174404149Y-96890042D02*
X174404149Y-95790042D01*
X174927958Y-96890042D02*
X174927958Y-95790042D01*
X166756529Y-98556219D02*
X166704148Y-98608600D01*
X166704148Y-98608600D02*
X166547005Y-98660980D01*
X166547005Y-98660980D02*
X166442243Y-98660980D01*
X166442243Y-98660980D02*
X166285100Y-98608600D01*
X166285100Y-98608600D02*
X166180338Y-98503838D01*
X166180338Y-98503838D02*
X166127957Y-98399076D01*
X166127957Y-98399076D02*
X166075576Y-98189552D01*
X166075576Y-98189552D02*
X166075576Y-98032409D01*
X166075576Y-98032409D02*
X166127957Y-97822885D01*
X166127957Y-97822885D02*
X166180338Y-97718123D01*
X166180338Y-97718123D02*
X166285100Y-97613361D01*
X166285100Y-97613361D02*
X166442243Y-97560980D01*
X166442243Y-97560980D02*
X166547005Y-97560980D01*
X166547005Y-97560980D02*
X166704148Y-97613361D01*
X166704148Y-97613361D02*
X166756529Y-97665742D01*
X167856529Y-98660980D02*
X167489862Y-98137171D01*
X167227957Y-98660980D02*
X167227957Y-97560980D01*
X167227957Y-97560980D02*
X167647005Y-97560980D01*
X167647005Y-97560980D02*
X167751767Y-97613361D01*
X167751767Y-97613361D02*
X167804148Y-97665742D01*
X167804148Y-97665742D02*
X167856529Y-97770504D01*
X167856529Y-97770504D02*
X167856529Y-97927647D01*
X167856529Y-97927647D02*
X167804148Y-98032409D01*
X167804148Y-98032409D02*
X167751767Y-98084790D01*
X167751767Y-98084790D02*
X167647005Y-98137171D01*
X167647005Y-98137171D02*
X167227957Y-98137171D01*
X168275576Y-97665742D02*
X168327957Y-97613361D01*
X168327957Y-97613361D02*
X168432719Y-97560980D01*
X168432719Y-97560980D02*
X168694624Y-97560980D01*
X168694624Y-97560980D02*
X168799386Y-97613361D01*
X168799386Y-97613361D02*
X168851767Y-97665742D01*
X168851767Y-97665742D02*
X168904148Y-97770504D01*
X168904148Y-97770504D02*
X168904148Y-97875266D01*
X168904148Y-97875266D02*
X168851767Y-98032409D01*
X168851767Y-98032409D02*
X168223195Y-98660980D01*
X168223195Y-98660980D02*
X168904148Y-98660980D01*
X169951767Y-98660980D02*
X169323195Y-98660980D01*
X169637481Y-98660980D02*
X169637481Y-97560980D01*
X169637481Y-97560980D02*
X169532719Y-97718123D01*
X169532719Y-97718123D02*
X169427957Y-97822885D01*
X169427957Y-97822885D02*
X169323195Y-97875266D01*
D11*
X133202588Y-124571580D02*
X133202588Y-123471580D01*
X133202588Y-123471580D02*
X133569255Y-124257295D01*
X133569255Y-124257295D02*
X133935922Y-123471580D01*
X133935922Y-123471580D02*
X133935922Y-124571580D01*
X134669255Y-123471580D02*
X134878779Y-123471580D01*
X134878779Y-123471580D02*
X134983541Y-123523961D01*
X134983541Y-123523961D02*
X135088303Y-123628723D01*
X135088303Y-123628723D02*
X135140684Y-123838247D01*
X135140684Y-123838247D02*
X135140684Y-124204914D01*
X135140684Y-124204914D02*
X135088303Y-124414438D01*
X135088303Y-124414438D02*
X134983541Y-124519200D01*
X134983541Y-124519200D02*
X134878779Y-124571580D01*
X134878779Y-124571580D02*
X134669255Y-124571580D01*
X134669255Y-124571580D02*
X134564493Y-124519200D01*
X134564493Y-124519200D02*
X134459731Y-124414438D01*
X134459731Y-124414438D02*
X134407350Y-124204914D01*
X134407350Y-124204914D02*
X134407350Y-123838247D01*
X134407350Y-123838247D02*
X134459731Y-123628723D01*
X134459731Y-123628723D02*
X134564493Y-123523961D01*
X134564493Y-123523961D02*
X134669255Y-123471580D01*
X135612112Y-124571580D02*
X135612112Y-123471580D01*
X135612112Y-123471580D02*
X135874017Y-123471580D01*
X135874017Y-123471580D02*
X136031160Y-123523961D01*
X136031160Y-123523961D02*
X136135922Y-123628723D01*
X136135922Y-123628723D02*
X136188303Y-123733485D01*
X136188303Y-123733485D02*
X136240684Y-123943009D01*
X136240684Y-123943009D02*
X136240684Y-124100152D01*
X136240684Y-124100152D02*
X136188303Y-124309676D01*
X136188303Y-124309676D02*
X136135922Y-124414438D01*
X136135922Y-124414438D02*
X136031160Y-124519200D01*
X136031160Y-124519200D02*
X135874017Y-124571580D01*
X135874017Y-124571580D02*
X135612112Y-124571580D01*
X136712112Y-123995390D02*
X137078779Y-123995390D01*
X137235922Y-124571580D02*
X136712112Y-124571580D01*
X136712112Y-124571580D02*
X136712112Y-123471580D01*
X136712112Y-123471580D02*
X137235922Y-123471580D01*
X137445446Y-124676342D02*
X138283541Y-124676342D01*
X138493064Y-124519200D02*
X138650207Y-124571580D01*
X138650207Y-124571580D02*
X138912112Y-124571580D01*
X138912112Y-124571580D02*
X139016874Y-124519200D01*
X139016874Y-124519200D02*
X139069255Y-124466819D01*
X139069255Y-124466819D02*
X139121636Y-124362057D01*
X139121636Y-124362057D02*
X139121636Y-124257295D01*
X139121636Y-124257295D02*
X139069255Y-124152533D01*
X139069255Y-124152533D02*
X139016874Y-124100152D01*
X139016874Y-124100152D02*
X138912112Y-124047771D01*
X138912112Y-124047771D02*
X138702588Y-123995390D01*
X138702588Y-123995390D02*
X138597826Y-123943009D01*
X138597826Y-123943009D02*
X138545445Y-123890628D01*
X138545445Y-123890628D02*
X138493064Y-123785866D01*
X138493064Y-123785866D02*
X138493064Y-123681104D01*
X138493064Y-123681104D02*
X138545445Y-123576342D01*
X138545445Y-123576342D02*
X138597826Y-123523961D01*
X138597826Y-123523961D02*
X138702588Y-123471580D01*
X138702588Y-123471580D02*
X138964493Y-123471580D01*
X138964493Y-123471580D02*
X139121636Y-123523961D01*
X139593064Y-123995390D02*
X139959731Y-123995390D01*
X140116874Y-124571580D02*
X139593064Y-124571580D01*
X139593064Y-124571580D02*
X139593064Y-123471580D01*
X139593064Y-123471580D02*
X140116874Y-123471580D01*
X141112112Y-124571580D02*
X140588302Y-124571580D01*
X140588302Y-124571580D02*
X140588302Y-123471580D01*
X146253445Y-123471580D02*
X146882017Y-123471580D01*
X146567731Y-124571580D02*
X146567731Y-123471580D01*
X147248683Y-124571580D02*
X147248683Y-123471580D01*
X147772493Y-124571580D02*
X147772493Y-123471580D01*
X147772493Y-123471580D02*
X148139160Y-124257295D01*
X148139160Y-124257295D02*
X148505827Y-123471580D01*
X148505827Y-123471580D02*
X148505827Y-124571580D01*
X149029636Y-123995390D02*
X149396303Y-123995390D01*
X149553446Y-124571580D02*
X149029636Y-124571580D01*
X149029636Y-124571580D02*
X149029636Y-123471580D01*
X149029636Y-123471580D02*
X149553446Y-123471580D01*
X150653446Y-124571580D02*
X150286779Y-124047771D01*
X150024874Y-124571580D02*
X150024874Y-123471580D01*
X150024874Y-123471580D02*
X150443922Y-123471580D01*
X150443922Y-123471580D02*
X150548684Y-123523961D01*
X150548684Y-123523961D02*
X150601065Y-123576342D01*
X150601065Y-123576342D02*
X150653446Y-123681104D01*
X150653446Y-123681104D02*
X150653446Y-123838247D01*
X150653446Y-123838247D02*
X150601065Y-123943009D01*
X150601065Y-123943009D02*
X150548684Y-123995390D01*
X150548684Y-123995390D02*
X150443922Y-124047771D01*
X150443922Y-124047771D02*
X150024874Y-124047771D01*
X150862970Y-124676342D02*
X151701065Y-124676342D01*
X152591541Y-124571580D02*
X152224874Y-124047771D01*
X151962969Y-124571580D02*
X151962969Y-123471580D01*
X151962969Y-123471580D02*
X152382017Y-123471580D01*
X152382017Y-123471580D02*
X152486779Y-123523961D01*
X152486779Y-123523961D02*
X152539160Y-123576342D01*
X152539160Y-123576342D02*
X152591541Y-123681104D01*
X152591541Y-123681104D02*
X152591541Y-123838247D01*
X152591541Y-123838247D02*
X152539160Y-123943009D01*
X152539160Y-123943009D02*
X152486779Y-123995390D01*
X152486779Y-123995390D02*
X152382017Y-124047771D01*
X152382017Y-124047771D02*
X151962969Y-124047771D01*
X153010588Y-124519200D02*
X153167731Y-124571580D01*
X153167731Y-124571580D02*
X153429636Y-124571580D01*
X153429636Y-124571580D02*
X153534398Y-124519200D01*
X153534398Y-124519200D02*
X153586779Y-124466819D01*
X153586779Y-124466819D02*
X153639160Y-124362057D01*
X153639160Y-124362057D02*
X153639160Y-124257295D01*
X153639160Y-124257295D02*
X153586779Y-124152533D01*
X153586779Y-124152533D02*
X153534398Y-124100152D01*
X153534398Y-124100152D02*
X153429636Y-124047771D01*
X153429636Y-124047771D02*
X153220112Y-123995390D01*
X153220112Y-123995390D02*
X153115350Y-123943009D01*
X153115350Y-123943009D02*
X153062969Y-123890628D01*
X153062969Y-123890628D02*
X153010588Y-123785866D01*
X153010588Y-123785866D02*
X153010588Y-123681104D01*
X153010588Y-123681104D02*
X153062969Y-123576342D01*
X153062969Y-123576342D02*
X153115350Y-123523961D01*
X153115350Y-123523961D02*
X153220112Y-123471580D01*
X153220112Y-123471580D02*
X153482017Y-123471580D01*
X153482017Y-123471580D02*
X153639160Y-123523961D01*
X153953445Y-123471580D02*
X154582017Y-123471580D01*
X154267731Y-124571580D02*
X154267731Y-123471580D01*
X185490295Y-120476666D02*
X186061723Y-120476666D01*
X186061723Y-120476666D02*
X186176009Y-120514761D01*
X186176009Y-120514761D02*
X186252200Y-120590952D01*
X186252200Y-120590952D02*
X186290295Y-120705237D01*
X186290295Y-120705237D02*
X186290295Y-120781428D01*
X185833152Y-119981428D02*
X185795057Y-120057618D01*
X185795057Y-120057618D02*
X185756961Y-120095713D01*
X185756961Y-120095713D02*
X185680771Y-120133809D01*
X185680771Y-120133809D02*
X185642676Y-120133809D01*
X185642676Y-120133809D02*
X185566485Y-120095713D01*
X185566485Y-120095713D02*
X185528390Y-120057618D01*
X185528390Y-120057618D02*
X185490295Y-119981428D01*
X185490295Y-119981428D02*
X185490295Y-119829047D01*
X185490295Y-119829047D02*
X185528390Y-119752856D01*
X185528390Y-119752856D02*
X185566485Y-119714761D01*
X185566485Y-119714761D02*
X185642676Y-119676666D01*
X185642676Y-119676666D02*
X185680771Y-119676666D01*
X185680771Y-119676666D02*
X185756961Y-119714761D01*
X185756961Y-119714761D02*
X185795057Y-119752856D01*
X185795057Y-119752856D02*
X185833152Y-119829047D01*
X185833152Y-119829047D02*
X185833152Y-119981428D01*
X185833152Y-119981428D02*
X185871247Y-120057618D01*
X185871247Y-120057618D02*
X185909342Y-120095713D01*
X185909342Y-120095713D02*
X185985533Y-120133809D01*
X185985533Y-120133809D02*
X186137914Y-120133809D01*
X186137914Y-120133809D02*
X186214104Y-120095713D01*
X186214104Y-120095713D02*
X186252200Y-120057618D01*
X186252200Y-120057618D02*
X186290295Y-119981428D01*
X186290295Y-119981428D02*
X186290295Y-119829047D01*
X186290295Y-119829047D02*
X186252200Y-119752856D01*
X186252200Y-119752856D02*
X186214104Y-119714761D01*
X186214104Y-119714761D02*
X186137914Y-119676666D01*
X186137914Y-119676666D02*
X185985533Y-119676666D01*
X185985533Y-119676666D02*
X185909342Y-119714761D01*
X185909342Y-119714761D02*
X185871247Y-119752856D01*
X185871247Y-119752856D02*
X185833152Y-119829047D01*
X196004094Y-118495427D02*
X195599332Y-118495427D01*
X195599332Y-118495427D02*
X195599332Y-117645427D01*
X196287427Y-118050189D02*
X196570761Y-118050189D01*
X196692189Y-118495427D02*
X196287427Y-118495427D01*
X196287427Y-118495427D02*
X196287427Y-117645427D01*
X196287427Y-117645427D02*
X196692189Y-117645427D01*
X197056475Y-118495427D02*
X197056475Y-117645427D01*
X197056475Y-117645427D02*
X197258856Y-117645427D01*
X197258856Y-117645427D02*
X197380285Y-117685903D01*
X197380285Y-117685903D02*
X197461237Y-117766855D01*
X197461237Y-117766855D02*
X197501714Y-117847808D01*
X197501714Y-117847808D02*
X197542190Y-118009712D01*
X197542190Y-118009712D02*
X197542190Y-118131141D01*
X197542190Y-118131141D02*
X197501714Y-118293046D01*
X197501714Y-118293046D02*
X197461237Y-118373998D01*
X197461237Y-118373998D02*
X197380285Y-118454951D01*
X197380285Y-118454951D02*
X197258856Y-118495427D01*
X197258856Y-118495427D02*
X197056475Y-118495427D01*
X198270761Y-117928760D02*
X198270761Y-118495427D01*
X198068380Y-117604951D02*
X197865999Y-118212093D01*
X197865999Y-118212093D02*
X198392190Y-118212093D01*
X198513619Y-118576379D02*
X199161238Y-118576379D01*
X199363618Y-118495427D02*
X199363618Y-117928760D01*
X199363618Y-117645427D02*
X199323142Y-117685903D01*
X199323142Y-117685903D02*
X199363618Y-117726379D01*
X199363618Y-117726379D02*
X199404095Y-117685903D01*
X199404095Y-117685903D02*
X199363618Y-117645427D01*
X199363618Y-117645427D02*
X199363618Y-117726379D01*
X199768380Y-117928760D02*
X199768380Y-118495427D01*
X199768380Y-118009712D02*
X199808857Y-117969236D01*
X199808857Y-117969236D02*
X199889809Y-117928760D01*
X199889809Y-117928760D02*
X200011238Y-117928760D01*
X200011238Y-117928760D02*
X200092190Y-117969236D01*
X200092190Y-117969236D02*
X200132666Y-118050189D01*
X200132666Y-118050189D02*
X200132666Y-118495427D01*
X168492295Y-120476666D02*
X169063723Y-120476666D01*
X169063723Y-120476666D02*
X169178009Y-120514761D01*
X169178009Y-120514761D02*
X169254200Y-120590952D01*
X169254200Y-120590952D02*
X169292295Y-120705237D01*
X169292295Y-120705237D02*
X169292295Y-120781428D01*
X168492295Y-119752856D02*
X168492295Y-119905237D01*
X168492295Y-119905237D02*
X168530390Y-119981428D01*
X168530390Y-119981428D02*
X168568485Y-120019523D01*
X168568485Y-120019523D02*
X168682771Y-120095713D01*
X168682771Y-120095713D02*
X168835152Y-120133809D01*
X168835152Y-120133809D02*
X169139914Y-120133809D01*
X169139914Y-120133809D02*
X169216104Y-120095713D01*
X169216104Y-120095713D02*
X169254200Y-120057618D01*
X169254200Y-120057618D02*
X169292295Y-119981428D01*
X169292295Y-119981428D02*
X169292295Y-119829047D01*
X169292295Y-119829047D02*
X169254200Y-119752856D01*
X169254200Y-119752856D02*
X169216104Y-119714761D01*
X169216104Y-119714761D02*
X169139914Y-119676666D01*
X169139914Y-119676666D02*
X168949438Y-119676666D01*
X168949438Y-119676666D02*
X168873247Y-119714761D01*
X168873247Y-119714761D02*
X168835152Y-119752856D01*
X168835152Y-119752856D02*
X168797057Y-119829047D01*
X168797057Y-119829047D02*
X168797057Y-119981428D01*
X168797057Y-119981428D02*
X168835152Y-120057618D01*
X168835152Y-120057618D02*
X168873247Y-120095713D01*
X168873247Y-120095713D02*
X168949438Y-120133809D01*
X164000094Y-117987427D02*
X163595332Y-117987427D01*
X163595332Y-117987427D02*
X163595332Y-117137427D01*
X164283427Y-117542189D02*
X164566761Y-117542189D01*
X164688189Y-117987427D02*
X164283427Y-117987427D01*
X164283427Y-117987427D02*
X164283427Y-117137427D01*
X164283427Y-117137427D02*
X164688189Y-117137427D01*
X165052475Y-117987427D02*
X165052475Y-117137427D01*
X165052475Y-117137427D02*
X165254856Y-117137427D01*
X165254856Y-117137427D02*
X165376285Y-117177903D01*
X165376285Y-117177903D02*
X165457237Y-117258855D01*
X165457237Y-117258855D02*
X165497714Y-117339808D01*
X165497714Y-117339808D02*
X165538190Y-117501712D01*
X165538190Y-117501712D02*
X165538190Y-117623141D01*
X165538190Y-117623141D02*
X165497714Y-117785046D01*
X165497714Y-117785046D02*
X165457237Y-117865998D01*
X165457237Y-117865998D02*
X165376285Y-117946951D01*
X165376285Y-117946951D02*
X165254856Y-117987427D01*
X165254856Y-117987427D02*
X165052475Y-117987427D01*
X165821523Y-117137427D02*
X166347714Y-117137427D01*
X166347714Y-117137427D02*
X166064380Y-117461236D01*
X166064380Y-117461236D02*
X166185809Y-117461236D01*
X166185809Y-117461236D02*
X166266761Y-117501712D01*
X166266761Y-117501712D02*
X166307237Y-117542189D01*
X166307237Y-117542189D02*
X166347714Y-117623141D01*
X166347714Y-117623141D02*
X166347714Y-117825522D01*
X166347714Y-117825522D02*
X166307237Y-117906474D01*
X166307237Y-117906474D02*
X166266761Y-117946951D01*
X166266761Y-117946951D02*
X166185809Y-117987427D01*
X166185809Y-117987427D02*
X165942952Y-117987427D01*
X165942952Y-117987427D02*
X165861999Y-117946951D01*
X165861999Y-117946951D02*
X165821523Y-117906474D01*
X166509619Y-118068379D02*
X167157238Y-118068379D01*
X167359618Y-117987427D02*
X167359618Y-117420760D01*
X167359618Y-117137427D02*
X167319142Y-117177903D01*
X167319142Y-117177903D02*
X167359618Y-117218379D01*
X167359618Y-117218379D02*
X167400095Y-117177903D01*
X167400095Y-117177903D02*
X167359618Y-117137427D01*
X167359618Y-117137427D02*
X167359618Y-117218379D01*
X167764380Y-117420760D02*
X167764380Y-117987427D01*
X167764380Y-117501712D02*
X167804857Y-117461236D01*
X167804857Y-117461236D02*
X167885809Y-117420760D01*
X167885809Y-117420760D02*
X168007238Y-117420760D01*
X168007238Y-117420760D02*
X168088190Y-117461236D01*
X168088190Y-117461236D02*
X168128666Y-117542189D01*
X168128666Y-117542189D02*
X168128666Y-117987427D01*
X185490295Y-74688666D02*
X186061723Y-74688666D01*
X186061723Y-74688666D02*
X186176009Y-74726761D01*
X186176009Y-74726761D02*
X186252200Y-74802952D01*
X186252200Y-74802952D02*
X186290295Y-74917237D01*
X186290295Y-74917237D02*
X186290295Y-74993428D01*
X186290295Y-74269618D02*
X186290295Y-74117237D01*
X186290295Y-74117237D02*
X186252200Y-74041047D01*
X186252200Y-74041047D02*
X186214104Y-74002951D01*
X186214104Y-74002951D02*
X186099819Y-73926761D01*
X186099819Y-73926761D02*
X185947438Y-73888666D01*
X185947438Y-73888666D02*
X185642676Y-73888666D01*
X185642676Y-73888666D02*
X185566485Y-73926761D01*
X185566485Y-73926761D02*
X185528390Y-73964856D01*
X185528390Y-73964856D02*
X185490295Y-74041047D01*
X185490295Y-74041047D02*
X185490295Y-74193428D01*
X185490295Y-74193428D02*
X185528390Y-74269618D01*
X185528390Y-74269618D02*
X185566485Y-74307713D01*
X185566485Y-74307713D02*
X185642676Y-74345809D01*
X185642676Y-74345809D02*
X185833152Y-74345809D01*
X185833152Y-74345809D02*
X185909342Y-74307713D01*
X185909342Y-74307713D02*
X185947438Y-74269618D01*
X185947438Y-74269618D02*
X185985533Y-74193428D01*
X185985533Y-74193428D02*
X185985533Y-74041047D01*
X185985533Y-74041047D02*
X185947438Y-73964856D01*
X185947438Y-73964856D02*
X185909342Y-73926761D01*
X185909342Y-73926761D02*
X185833152Y-73888666D01*
X189229094Y-76839427D02*
X188824332Y-76839427D01*
X188824332Y-76839427D02*
X188824332Y-75989427D01*
X189512427Y-76394189D02*
X189795761Y-76394189D01*
X189917189Y-76839427D02*
X189512427Y-76839427D01*
X189512427Y-76839427D02*
X189512427Y-75989427D01*
X189512427Y-75989427D02*
X189917189Y-75989427D01*
X190281475Y-76839427D02*
X190281475Y-75989427D01*
X190281475Y-75989427D02*
X190483856Y-75989427D01*
X190483856Y-75989427D02*
X190605285Y-76029903D01*
X190605285Y-76029903D02*
X190686237Y-76110855D01*
X190686237Y-76110855D02*
X190726714Y-76191808D01*
X190726714Y-76191808D02*
X190767190Y-76353712D01*
X190767190Y-76353712D02*
X190767190Y-76475141D01*
X190767190Y-76475141D02*
X190726714Y-76637046D01*
X190726714Y-76637046D02*
X190686237Y-76717998D01*
X190686237Y-76717998D02*
X190605285Y-76798951D01*
X190605285Y-76798951D02*
X190483856Y-76839427D01*
X190483856Y-76839427D02*
X190281475Y-76839427D01*
X191495761Y-76272760D02*
X191495761Y-76839427D01*
X191293380Y-75948951D02*
X191090999Y-76556093D01*
X191090999Y-76556093D02*
X191617190Y-76556093D01*
X191738619Y-76920379D02*
X192386238Y-76920379D01*
X192710047Y-76839427D02*
X192629095Y-76798951D01*
X192629095Y-76798951D02*
X192588618Y-76758474D01*
X192588618Y-76758474D02*
X192548142Y-76677522D01*
X192548142Y-76677522D02*
X192548142Y-76434665D01*
X192548142Y-76434665D02*
X192588618Y-76353712D01*
X192588618Y-76353712D02*
X192629095Y-76313236D01*
X192629095Y-76313236D02*
X192710047Y-76272760D01*
X192710047Y-76272760D02*
X192831476Y-76272760D01*
X192831476Y-76272760D02*
X192912428Y-76313236D01*
X192912428Y-76313236D02*
X192952904Y-76353712D01*
X192952904Y-76353712D02*
X192993380Y-76434665D01*
X192993380Y-76434665D02*
X192993380Y-76677522D01*
X192993380Y-76677522D02*
X192952904Y-76758474D01*
X192952904Y-76758474D02*
X192912428Y-76798951D01*
X192912428Y-76798951D02*
X192831476Y-76839427D01*
X192831476Y-76839427D02*
X192710047Y-76839427D01*
X193721952Y-76272760D02*
X193721952Y-76839427D01*
X193357666Y-76272760D02*
X193357666Y-76717998D01*
X193357666Y-76717998D02*
X193398143Y-76798951D01*
X193398143Y-76798951D02*
X193479095Y-76839427D01*
X193479095Y-76839427D02*
X193600524Y-76839427D01*
X193600524Y-76839427D02*
X193681476Y-76798951D01*
X193681476Y-76798951D02*
X193721952Y-76758474D01*
X194005286Y-76272760D02*
X194329095Y-76272760D01*
X194126714Y-75989427D02*
X194126714Y-76717998D01*
X194126714Y-76717998D02*
X194167191Y-76798951D01*
X194167191Y-76798951D02*
X194248143Y-76839427D01*
X194248143Y-76839427D02*
X194329095Y-76839427D01*
X168492295Y-74756666D02*
X169063723Y-74756666D01*
X169063723Y-74756666D02*
X169178009Y-74794761D01*
X169178009Y-74794761D02*
X169254200Y-74870952D01*
X169254200Y-74870952D02*
X169292295Y-74985237D01*
X169292295Y-74985237D02*
X169292295Y-75061428D01*
X168492295Y-74451904D02*
X168492295Y-73918570D01*
X168492295Y-73918570D02*
X169292295Y-74261428D01*
X157225094Y-77093427D02*
X156820332Y-77093427D01*
X156820332Y-77093427D02*
X156820332Y-76243427D01*
X157508427Y-76648189D02*
X157791761Y-76648189D01*
X157913189Y-77093427D02*
X157508427Y-77093427D01*
X157508427Y-77093427D02*
X157508427Y-76243427D01*
X157508427Y-76243427D02*
X157913189Y-76243427D01*
X158277475Y-77093427D02*
X158277475Y-76243427D01*
X158277475Y-76243427D02*
X158479856Y-76243427D01*
X158479856Y-76243427D02*
X158601285Y-76283903D01*
X158601285Y-76283903D02*
X158682237Y-76364855D01*
X158682237Y-76364855D02*
X158722714Y-76445808D01*
X158722714Y-76445808D02*
X158763190Y-76607712D01*
X158763190Y-76607712D02*
X158763190Y-76729141D01*
X158763190Y-76729141D02*
X158722714Y-76891046D01*
X158722714Y-76891046D02*
X158682237Y-76971998D01*
X158682237Y-76971998D02*
X158601285Y-77052951D01*
X158601285Y-77052951D02*
X158479856Y-77093427D01*
X158479856Y-77093427D02*
X158277475Y-77093427D01*
X159046523Y-76243427D02*
X159572714Y-76243427D01*
X159572714Y-76243427D02*
X159289380Y-76567236D01*
X159289380Y-76567236D02*
X159410809Y-76567236D01*
X159410809Y-76567236D02*
X159491761Y-76607712D01*
X159491761Y-76607712D02*
X159532237Y-76648189D01*
X159532237Y-76648189D02*
X159572714Y-76729141D01*
X159572714Y-76729141D02*
X159572714Y-76931522D01*
X159572714Y-76931522D02*
X159532237Y-77012474D01*
X159532237Y-77012474D02*
X159491761Y-77052951D01*
X159491761Y-77052951D02*
X159410809Y-77093427D01*
X159410809Y-77093427D02*
X159167952Y-77093427D01*
X159167952Y-77093427D02*
X159086999Y-77052951D01*
X159086999Y-77052951D02*
X159046523Y-77012474D01*
X159734619Y-77174379D02*
X160382238Y-77174379D01*
X160706047Y-77093427D02*
X160625095Y-77052951D01*
X160625095Y-77052951D02*
X160584618Y-77012474D01*
X160584618Y-77012474D02*
X160544142Y-76931522D01*
X160544142Y-76931522D02*
X160544142Y-76688665D01*
X160544142Y-76688665D02*
X160584618Y-76607712D01*
X160584618Y-76607712D02*
X160625095Y-76567236D01*
X160625095Y-76567236D02*
X160706047Y-76526760D01*
X160706047Y-76526760D02*
X160827476Y-76526760D01*
X160827476Y-76526760D02*
X160908428Y-76567236D01*
X160908428Y-76567236D02*
X160948904Y-76607712D01*
X160948904Y-76607712D02*
X160989380Y-76688665D01*
X160989380Y-76688665D02*
X160989380Y-76931522D01*
X160989380Y-76931522D02*
X160948904Y-77012474D01*
X160948904Y-77012474D02*
X160908428Y-77052951D01*
X160908428Y-77052951D02*
X160827476Y-77093427D01*
X160827476Y-77093427D02*
X160706047Y-77093427D01*
X161717952Y-76526760D02*
X161717952Y-77093427D01*
X161353666Y-76526760D02*
X161353666Y-76971998D01*
X161353666Y-76971998D02*
X161394143Y-77052951D01*
X161394143Y-77052951D02*
X161475095Y-77093427D01*
X161475095Y-77093427D02*
X161596524Y-77093427D01*
X161596524Y-77093427D02*
X161677476Y-77052951D01*
X161677476Y-77052951D02*
X161717952Y-77012474D01*
X162001286Y-76526760D02*
X162325095Y-76526760D01*
X162122714Y-76243427D02*
X162122714Y-76971998D01*
X162122714Y-76971998D02*
X162163191Y-77052951D01*
X162163191Y-77052951D02*
X162244143Y-77093427D01*
X162244143Y-77093427D02*
X162325095Y-77093427D01*
X132232475Y-129356200D02*
X132346761Y-129394295D01*
X132346761Y-129394295D02*
X132537237Y-129394295D01*
X132537237Y-129394295D02*
X132613428Y-129356200D01*
X132613428Y-129356200D02*
X132651523Y-129318104D01*
X132651523Y-129318104D02*
X132689618Y-129241914D01*
X132689618Y-129241914D02*
X132689618Y-129165723D01*
X132689618Y-129165723D02*
X132651523Y-129089533D01*
X132651523Y-129089533D02*
X132613428Y-129051438D01*
X132613428Y-129051438D02*
X132537237Y-129013342D01*
X132537237Y-129013342D02*
X132384856Y-128975247D01*
X132384856Y-128975247D02*
X132308666Y-128937152D01*
X132308666Y-128937152D02*
X132270571Y-128899057D01*
X132270571Y-128899057D02*
X132232475Y-128822866D01*
X132232475Y-128822866D02*
X132232475Y-128746676D01*
X132232475Y-128746676D02*
X132270571Y-128670485D01*
X132270571Y-128670485D02*
X132308666Y-128632390D01*
X132308666Y-128632390D02*
X132384856Y-128594295D01*
X132384856Y-128594295D02*
X132575333Y-128594295D01*
X132575333Y-128594295D02*
X132689618Y-128632390D01*
X132994380Y-128670485D02*
X133032476Y-128632390D01*
X133032476Y-128632390D02*
X133108666Y-128594295D01*
X133108666Y-128594295D02*
X133299142Y-128594295D01*
X133299142Y-128594295D02*
X133375333Y-128632390D01*
X133375333Y-128632390D02*
X133413428Y-128670485D01*
X133413428Y-128670485D02*
X133451523Y-128746676D01*
X133451523Y-128746676D02*
X133451523Y-128822866D01*
X133451523Y-128822866D02*
X133413428Y-128937152D01*
X133413428Y-128937152D02*
X132956285Y-129394295D01*
X132956285Y-129394295D02*
X133451523Y-129394295D01*
X136082295Y-120456666D02*
X136653723Y-120456666D01*
X136653723Y-120456666D02*
X136768009Y-120494761D01*
X136768009Y-120494761D02*
X136844200Y-120570952D01*
X136844200Y-120570952D02*
X136882295Y-120685237D01*
X136882295Y-120685237D02*
X136882295Y-120761428D01*
X136348961Y-119732856D02*
X136882295Y-119732856D01*
X136044200Y-119923332D02*
X136615628Y-120113809D01*
X136615628Y-120113809D02*
X136615628Y-119618570D01*
X129964094Y-117733427D02*
X129559332Y-117733427D01*
X129559332Y-117733427D02*
X129559332Y-116883427D01*
X130247427Y-117288189D02*
X130530761Y-117288189D01*
X130652189Y-117733427D02*
X130247427Y-117733427D01*
X130247427Y-117733427D02*
X130247427Y-116883427D01*
X130247427Y-116883427D02*
X130652189Y-116883427D01*
X131016475Y-117733427D02*
X131016475Y-116883427D01*
X131016475Y-116883427D02*
X131218856Y-116883427D01*
X131218856Y-116883427D02*
X131340285Y-116923903D01*
X131340285Y-116923903D02*
X131421237Y-117004855D01*
X131421237Y-117004855D02*
X131461714Y-117085808D01*
X131461714Y-117085808D02*
X131502190Y-117247712D01*
X131502190Y-117247712D02*
X131502190Y-117369141D01*
X131502190Y-117369141D02*
X131461714Y-117531046D01*
X131461714Y-117531046D02*
X131421237Y-117611998D01*
X131421237Y-117611998D02*
X131340285Y-117692951D01*
X131340285Y-117692951D02*
X131218856Y-117733427D01*
X131218856Y-117733427D02*
X131016475Y-117733427D01*
X131825999Y-116964379D02*
X131866475Y-116923903D01*
X131866475Y-116923903D02*
X131947428Y-116883427D01*
X131947428Y-116883427D02*
X132149809Y-116883427D01*
X132149809Y-116883427D02*
X132230761Y-116923903D01*
X132230761Y-116923903D02*
X132271237Y-116964379D01*
X132271237Y-116964379D02*
X132311714Y-117045331D01*
X132311714Y-117045331D02*
X132311714Y-117126284D01*
X132311714Y-117126284D02*
X132271237Y-117247712D01*
X132271237Y-117247712D02*
X131785523Y-117733427D01*
X131785523Y-117733427D02*
X132311714Y-117733427D01*
X132473619Y-117814379D02*
X133121238Y-117814379D01*
X133323618Y-117733427D02*
X133323618Y-117166760D01*
X133323618Y-116883427D02*
X133283142Y-116923903D01*
X133283142Y-116923903D02*
X133323618Y-116964379D01*
X133323618Y-116964379D02*
X133364095Y-116923903D01*
X133364095Y-116923903D02*
X133323618Y-116883427D01*
X133323618Y-116883427D02*
X133323618Y-116964379D01*
X133728380Y-117166760D02*
X133728380Y-117733427D01*
X133728380Y-117247712D02*
X133768857Y-117207236D01*
X133768857Y-117207236D02*
X133849809Y-117166760D01*
X133849809Y-117166760D02*
X133971238Y-117166760D01*
X133971238Y-117166760D02*
X134052190Y-117207236D01*
X134052190Y-117207236D02*
X134092666Y-117288189D01*
X134092666Y-117288189D02*
X134092666Y-117733427D01*
X103892295Y-120496666D02*
X104463723Y-120496666D01*
X104463723Y-120496666D02*
X104578009Y-120534761D01*
X104578009Y-120534761D02*
X104654200Y-120610952D01*
X104654200Y-120610952D02*
X104692295Y-120725237D01*
X104692295Y-120725237D02*
X104692295Y-120801428D01*
X103968485Y-120153809D02*
X103930390Y-120115713D01*
X103930390Y-120115713D02*
X103892295Y-120039523D01*
X103892295Y-120039523D02*
X103892295Y-119849047D01*
X103892295Y-119849047D02*
X103930390Y-119772856D01*
X103930390Y-119772856D02*
X103968485Y-119734761D01*
X103968485Y-119734761D02*
X104044676Y-119696666D01*
X104044676Y-119696666D02*
X104120866Y-119696666D01*
X104120866Y-119696666D02*
X104235152Y-119734761D01*
X104235152Y-119734761D02*
X104692295Y-120191904D01*
X104692295Y-120191904D02*
X104692295Y-119696666D01*
X93134094Y-118495427D02*
X92729332Y-118495427D01*
X92729332Y-118495427D02*
X92729332Y-117645427D01*
X93417427Y-118050189D02*
X93700761Y-118050189D01*
X93822189Y-118495427D02*
X93417427Y-118495427D01*
X93417427Y-118495427D02*
X93417427Y-117645427D01*
X93417427Y-117645427D02*
X93822189Y-117645427D01*
X94186475Y-118495427D02*
X94186475Y-117645427D01*
X94186475Y-117645427D02*
X94388856Y-117645427D01*
X94388856Y-117645427D02*
X94510285Y-117685903D01*
X94510285Y-117685903D02*
X94591237Y-117766855D01*
X94591237Y-117766855D02*
X94631714Y-117847808D01*
X94631714Y-117847808D02*
X94672190Y-118009712D01*
X94672190Y-118009712D02*
X94672190Y-118131141D01*
X94672190Y-118131141D02*
X94631714Y-118293046D01*
X94631714Y-118293046D02*
X94591237Y-118373998D01*
X94591237Y-118373998D02*
X94510285Y-118454951D01*
X94510285Y-118454951D02*
X94388856Y-118495427D01*
X94388856Y-118495427D02*
X94186475Y-118495427D01*
X95481714Y-118495427D02*
X94995999Y-118495427D01*
X95238856Y-118495427D02*
X95238856Y-117645427D01*
X95238856Y-117645427D02*
X95157904Y-117766855D01*
X95157904Y-117766855D02*
X95076952Y-117847808D01*
X95076952Y-117847808D02*
X94995999Y-117888284D01*
X95643619Y-118576379D02*
X96291238Y-118576379D01*
X96493618Y-118495427D02*
X96493618Y-117928760D01*
X96493618Y-117645427D02*
X96453142Y-117685903D01*
X96453142Y-117685903D02*
X96493618Y-117726379D01*
X96493618Y-117726379D02*
X96534095Y-117685903D01*
X96534095Y-117685903D02*
X96493618Y-117645427D01*
X96493618Y-117645427D02*
X96493618Y-117726379D01*
X96898380Y-117928760D02*
X96898380Y-118495427D01*
X96898380Y-118009712D02*
X96938857Y-117969236D01*
X96938857Y-117969236D02*
X97019809Y-117928760D01*
X97019809Y-117928760D02*
X97141238Y-117928760D01*
X97141238Y-117928760D02*
X97222190Y-117969236D01*
X97222190Y-117969236D02*
X97262666Y-118050189D01*
X97262666Y-118050189D02*
X97262666Y-118495427D01*
X136082295Y-74686666D02*
X136653723Y-74686666D01*
X136653723Y-74686666D02*
X136768009Y-74724761D01*
X136768009Y-74724761D02*
X136844200Y-74800952D01*
X136844200Y-74800952D02*
X136882295Y-74915237D01*
X136882295Y-74915237D02*
X136882295Y-74991428D01*
X136082295Y-73924761D02*
X136082295Y-74305713D01*
X136082295Y-74305713D02*
X136463247Y-74343809D01*
X136463247Y-74343809D02*
X136425152Y-74305713D01*
X136425152Y-74305713D02*
X136387057Y-74229523D01*
X136387057Y-74229523D02*
X136387057Y-74039047D01*
X136387057Y-74039047D02*
X136425152Y-73962856D01*
X136425152Y-73962856D02*
X136463247Y-73924761D01*
X136463247Y-73924761D02*
X136539438Y-73886666D01*
X136539438Y-73886666D02*
X136729914Y-73886666D01*
X136729914Y-73886666D02*
X136806104Y-73924761D01*
X136806104Y-73924761D02*
X136844200Y-73962856D01*
X136844200Y-73962856D02*
X136882295Y-74039047D01*
X136882295Y-74039047D02*
X136882295Y-74229523D01*
X136882295Y-74229523D02*
X136844200Y-74305713D01*
X136844200Y-74305713D02*
X136806104Y-74343809D01*
X124459094Y-77093427D02*
X124054332Y-77093427D01*
X124054332Y-77093427D02*
X124054332Y-76243427D01*
X124742427Y-76648189D02*
X125025761Y-76648189D01*
X125147189Y-77093427D02*
X124742427Y-77093427D01*
X124742427Y-77093427D02*
X124742427Y-76243427D01*
X124742427Y-76243427D02*
X125147189Y-76243427D01*
X125511475Y-77093427D02*
X125511475Y-76243427D01*
X125511475Y-76243427D02*
X125713856Y-76243427D01*
X125713856Y-76243427D02*
X125835285Y-76283903D01*
X125835285Y-76283903D02*
X125916237Y-76364855D01*
X125916237Y-76364855D02*
X125956714Y-76445808D01*
X125956714Y-76445808D02*
X125997190Y-76607712D01*
X125997190Y-76607712D02*
X125997190Y-76729141D01*
X125997190Y-76729141D02*
X125956714Y-76891046D01*
X125956714Y-76891046D02*
X125916237Y-76971998D01*
X125916237Y-76971998D02*
X125835285Y-77052951D01*
X125835285Y-77052951D02*
X125713856Y-77093427D01*
X125713856Y-77093427D02*
X125511475Y-77093427D01*
X126320999Y-76324379D02*
X126361475Y-76283903D01*
X126361475Y-76283903D02*
X126442428Y-76243427D01*
X126442428Y-76243427D02*
X126644809Y-76243427D01*
X126644809Y-76243427D02*
X126725761Y-76283903D01*
X126725761Y-76283903D02*
X126766237Y-76324379D01*
X126766237Y-76324379D02*
X126806714Y-76405331D01*
X126806714Y-76405331D02*
X126806714Y-76486284D01*
X126806714Y-76486284D02*
X126766237Y-76607712D01*
X126766237Y-76607712D02*
X126280523Y-77093427D01*
X126280523Y-77093427D02*
X126806714Y-77093427D01*
X126968619Y-77174379D02*
X127616238Y-77174379D01*
X127940047Y-77093427D02*
X127859095Y-77052951D01*
X127859095Y-77052951D02*
X127818618Y-77012474D01*
X127818618Y-77012474D02*
X127778142Y-76931522D01*
X127778142Y-76931522D02*
X127778142Y-76688665D01*
X127778142Y-76688665D02*
X127818618Y-76607712D01*
X127818618Y-76607712D02*
X127859095Y-76567236D01*
X127859095Y-76567236D02*
X127940047Y-76526760D01*
X127940047Y-76526760D02*
X128061476Y-76526760D01*
X128061476Y-76526760D02*
X128142428Y-76567236D01*
X128142428Y-76567236D02*
X128182904Y-76607712D01*
X128182904Y-76607712D02*
X128223380Y-76688665D01*
X128223380Y-76688665D02*
X128223380Y-76931522D01*
X128223380Y-76931522D02*
X128182904Y-77012474D01*
X128182904Y-77012474D02*
X128142428Y-77052951D01*
X128142428Y-77052951D02*
X128061476Y-77093427D01*
X128061476Y-77093427D02*
X127940047Y-77093427D01*
X128951952Y-76526760D02*
X128951952Y-77093427D01*
X128587666Y-76526760D02*
X128587666Y-76971998D01*
X128587666Y-76971998D02*
X128628143Y-77052951D01*
X128628143Y-77052951D02*
X128709095Y-77093427D01*
X128709095Y-77093427D02*
X128830524Y-77093427D01*
X128830524Y-77093427D02*
X128911476Y-77052951D01*
X128911476Y-77052951D02*
X128951952Y-77012474D01*
X129235286Y-76526760D02*
X129559095Y-76526760D01*
X129356714Y-76243427D02*
X129356714Y-76971998D01*
X129356714Y-76971998D02*
X129397191Y-77052951D01*
X129397191Y-77052951D02*
X129478143Y-77093427D01*
X129478143Y-77093427D02*
X129559095Y-77093427D01*
X153568475Y-129102200D02*
X153682761Y-129140295D01*
X153682761Y-129140295D02*
X153873237Y-129140295D01*
X153873237Y-129140295D02*
X153949428Y-129102200D01*
X153949428Y-129102200D02*
X153987523Y-129064104D01*
X153987523Y-129064104D02*
X154025618Y-128987914D01*
X154025618Y-128987914D02*
X154025618Y-128911723D01*
X154025618Y-128911723D02*
X153987523Y-128835533D01*
X153987523Y-128835533D02*
X153949428Y-128797438D01*
X153949428Y-128797438D02*
X153873237Y-128759342D01*
X153873237Y-128759342D02*
X153720856Y-128721247D01*
X153720856Y-128721247D02*
X153644666Y-128683152D01*
X153644666Y-128683152D02*
X153606571Y-128645057D01*
X153606571Y-128645057D02*
X153568475Y-128568866D01*
X153568475Y-128568866D02*
X153568475Y-128492676D01*
X153568475Y-128492676D02*
X153606571Y-128416485D01*
X153606571Y-128416485D02*
X153644666Y-128378390D01*
X153644666Y-128378390D02*
X153720856Y-128340295D01*
X153720856Y-128340295D02*
X153911333Y-128340295D01*
X153911333Y-128340295D02*
X154025618Y-128378390D01*
X154292285Y-128340295D02*
X154787523Y-128340295D01*
X154787523Y-128340295D02*
X154520857Y-128645057D01*
X154520857Y-128645057D02*
X154635142Y-128645057D01*
X154635142Y-128645057D02*
X154711333Y-128683152D01*
X154711333Y-128683152D02*
X154749428Y-128721247D01*
X154749428Y-128721247D02*
X154787523Y-128797438D01*
X154787523Y-128797438D02*
X154787523Y-128987914D01*
X154787523Y-128987914D02*
X154749428Y-129064104D01*
X154749428Y-129064104D02*
X154711333Y-129102200D01*
X154711333Y-129102200D02*
X154635142Y-129140295D01*
X154635142Y-129140295D02*
X154406571Y-129140295D01*
X154406571Y-129140295D02*
X154330380Y-129102200D01*
X154330380Y-129102200D02*
X154292285Y-129064104D01*
X103892295Y-74716666D02*
X104463723Y-74716666D01*
X104463723Y-74716666D02*
X104578009Y-74754761D01*
X104578009Y-74754761D02*
X104654200Y-74830952D01*
X104654200Y-74830952D02*
X104692295Y-74945237D01*
X104692295Y-74945237D02*
X104692295Y-75021428D01*
X103892295Y-74411904D02*
X103892295Y-73916666D01*
X103892295Y-73916666D02*
X104197057Y-74183332D01*
X104197057Y-74183332D02*
X104197057Y-74069047D01*
X104197057Y-74069047D02*
X104235152Y-73992856D01*
X104235152Y-73992856D02*
X104273247Y-73954761D01*
X104273247Y-73954761D02*
X104349438Y-73916666D01*
X104349438Y-73916666D02*
X104539914Y-73916666D01*
X104539914Y-73916666D02*
X104616104Y-73954761D01*
X104616104Y-73954761D02*
X104654200Y-73992856D01*
X104654200Y-73992856D02*
X104692295Y-74069047D01*
X104692295Y-74069047D02*
X104692295Y-74297618D01*
X104692295Y-74297618D02*
X104654200Y-74373809D01*
X104654200Y-74373809D02*
X104616104Y-74411904D01*
X91693094Y-76839427D02*
X91288332Y-76839427D01*
X91288332Y-76839427D02*
X91288332Y-75989427D01*
X91976427Y-76394189D02*
X92259761Y-76394189D01*
X92381189Y-76839427D02*
X91976427Y-76839427D01*
X91976427Y-76839427D02*
X91976427Y-75989427D01*
X91976427Y-75989427D02*
X92381189Y-75989427D01*
X92745475Y-76839427D02*
X92745475Y-75989427D01*
X92745475Y-75989427D02*
X92947856Y-75989427D01*
X92947856Y-75989427D02*
X93069285Y-76029903D01*
X93069285Y-76029903D02*
X93150237Y-76110855D01*
X93150237Y-76110855D02*
X93190714Y-76191808D01*
X93190714Y-76191808D02*
X93231190Y-76353712D01*
X93231190Y-76353712D02*
X93231190Y-76475141D01*
X93231190Y-76475141D02*
X93190714Y-76637046D01*
X93190714Y-76637046D02*
X93150237Y-76717998D01*
X93150237Y-76717998D02*
X93069285Y-76798951D01*
X93069285Y-76798951D02*
X92947856Y-76839427D01*
X92947856Y-76839427D02*
X92745475Y-76839427D01*
X94040714Y-76839427D02*
X93554999Y-76839427D01*
X93797856Y-76839427D02*
X93797856Y-75989427D01*
X93797856Y-75989427D02*
X93716904Y-76110855D01*
X93716904Y-76110855D02*
X93635952Y-76191808D01*
X93635952Y-76191808D02*
X93554999Y-76232284D01*
X94202619Y-76920379D02*
X94850238Y-76920379D01*
X95174047Y-76839427D02*
X95093095Y-76798951D01*
X95093095Y-76798951D02*
X95052618Y-76758474D01*
X95052618Y-76758474D02*
X95012142Y-76677522D01*
X95012142Y-76677522D02*
X95012142Y-76434665D01*
X95012142Y-76434665D02*
X95052618Y-76353712D01*
X95052618Y-76353712D02*
X95093095Y-76313236D01*
X95093095Y-76313236D02*
X95174047Y-76272760D01*
X95174047Y-76272760D02*
X95295476Y-76272760D01*
X95295476Y-76272760D02*
X95376428Y-76313236D01*
X95376428Y-76313236D02*
X95416904Y-76353712D01*
X95416904Y-76353712D02*
X95457380Y-76434665D01*
X95457380Y-76434665D02*
X95457380Y-76677522D01*
X95457380Y-76677522D02*
X95416904Y-76758474D01*
X95416904Y-76758474D02*
X95376428Y-76798951D01*
X95376428Y-76798951D02*
X95295476Y-76839427D01*
X95295476Y-76839427D02*
X95174047Y-76839427D01*
X96185952Y-76272760D02*
X96185952Y-76839427D01*
X95821666Y-76272760D02*
X95821666Y-76717998D01*
X95821666Y-76717998D02*
X95862143Y-76798951D01*
X95862143Y-76798951D02*
X95943095Y-76839427D01*
X95943095Y-76839427D02*
X96064524Y-76839427D01*
X96064524Y-76839427D02*
X96145476Y-76798951D01*
X96145476Y-76798951D02*
X96185952Y-76758474D01*
X96469286Y-76272760D02*
X96793095Y-76272760D01*
X96590714Y-75989427D02*
X96590714Y-76717998D01*
X96590714Y-76717998D02*
X96631191Y-76798951D01*
X96631191Y-76798951D02*
X96712143Y-76839427D01*
X96712143Y-76839427D02*
X96793095Y-76839427D01*
D12*
%TO.C,J8*%
X200250000Y-118880000D02*
X200250000Y-120210000D01*
X198920000Y-118880000D02*
X200250000Y-118880000D01*
X197650000Y-118880000D02*
X187430000Y-118880000D01*
X197650000Y-118880000D02*
X197650000Y-121540000D01*
X187430000Y-118880000D02*
X187430000Y-121540000D01*
X197650000Y-121540000D02*
X187430000Y-121540000D01*
%TO.C,J6*%
X165330000Y-121540000D02*
X155110000Y-121540000D01*
X155110000Y-118880000D02*
X155110000Y-121540000D01*
X165330000Y-118880000D02*
X165330000Y-121540000D01*
X165330000Y-118880000D02*
X155110000Y-118880000D01*
X166600000Y-118880000D02*
X167930000Y-118880000D01*
X167930000Y-118880000D02*
X167930000Y-120210000D01*
%TO.C,J9*%
X200250000Y-73090000D02*
X200250000Y-74420000D01*
X198920000Y-73090000D02*
X200250000Y-73090000D01*
X197650000Y-73090000D02*
X187430000Y-73090000D01*
X197650000Y-73090000D02*
X197650000Y-75750000D01*
X187430000Y-73090000D02*
X187430000Y-75750000D01*
X197650000Y-75750000D02*
X187430000Y-75750000D01*
%TO.C,J7*%
X167930000Y-73160000D02*
X167930000Y-74490000D01*
X166600000Y-73160000D02*
X167930000Y-73160000D01*
X165330000Y-73160000D02*
X155110000Y-73160000D01*
X165330000Y-73160000D02*
X165330000Y-75820000D01*
X155110000Y-73160000D02*
X155110000Y-75820000D01*
X165330000Y-75820000D02*
X155110000Y-75820000D01*
D13*
%TO.C,S2*%
X135175000Y-129370000D02*
X135175000Y-127030000D01*
X136005000Y-131200000D02*
X140345000Y-131200000D01*
X140345000Y-125200000D02*
X136005000Y-125200000D01*
X141175000Y-127030000D02*
X141175000Y-129370000D01*
D10*
X133045000Y-125888000D02*
G75*
G02*
X132845000Y-125888000I-100000J0D01*
G01*
X132845000Y-125888000D02*
G75*
G02*
X133045000Y-125888000I100000J0D01*
G01*
D12*
%TO.C,J4*%
X135520000Y-118860000D02*
X135520000Y-120190000D01*
X134190000Y-118860000D02*
X135520000Y-118860000D01*
X132920000Y-118860000D02*
X122700000Y-118860000D01*
X132920000Y-118860000D02*
X132920000Y-121520000D01*
X122700000Y-118860000D02*
X122700000Y-121520000D01*
X132920000Y-121520000D02*
X122700000Y-121520000D01*
%TO.C,J2*%
X100730000Y-121560000D02*
X90510000Y-121560000D01*
X90510000Y-118900000D02*
X90510000Y-121560000D01*
X100730000Y-118900000D02*
X100730000Y-121560000D01*
X100730000Y-118900000D02*
X90510000Y-118900000D01*
X102000000Y-118900000D02*
X103330000Y-118900000D01*
X103330000Y-118900000D02*
X103330000Y-120230000D01*
%TO.C,J5*%
X135520000Y-73090000D02*
X135520000Y-74420000D01*
X134190000Y-73090000D02*
X135520000Y-73090000D01*
X132920000Y-73090000D02*
X122700000Y-73090000D01*
X132920000Y-73090000D02*
X132920000Y-75750000D01*
X122700000Y-73090000D02*
X122700000Y-75750000D01*
X132920000Y-75750000D02*
X122700000Y-75750000D01*
D13*
%TO.C,S3*%
X145900000Y-129395000D02*
X145900000Y-127055000D01*
X146730000Y-131225000D02*
X151070000Y-131225000D01*
X151070000Y-125225000D02*
X146730000Y-125225000D01*
X151900000Y-127055000D02*
X151900000Y-129395000D01*
D10*
X143770000Y-125913000D02*
G75*
G02*
X143570000Y-125913000I-100000J0D01*
G01*
X143570000Y-125913000D02*
G75*
G02*
X143770000Y-125913000I100000J0D01*
G01*
D12*
%TO.C,J3*%
X103330000Y-73120000D02*
X103330000Y-74450000D01*
X102000000Y-73120000D02*
X103330000Y-73120000D01*
X100730000Y-73120000D02*
X90510000Y-73120000D01*
X100730000Y-73120000D02*
X100730000Y-75780000D01*
X90510000Y-73120000D02*
X90510000Y-75780000D01*
X100730000Y-75780000D02*
X90510000Y-75780000D01*
%TD*%
M02*
